HIERARCHY
ROOT Pelvis
{
	OFFSET 0.000000 0.000000 0.000000
	CHANNELS 6 Xposition Yposition Zposition Xrotation Yrotation Zrotation
	JOINT LeftUpLeg_virtual
	{
		OFFSET 0.000000 0.000000 0.000000
		CHANNELS 3 Xrotation Yrotation Zrotation
		JOINT LeftUpLeg
		{
			OFFSET 18.735201 -5.666702 -4.541200
			CHANNELS 3 Xrotation Yrotation Zrotation
			JOINT LeftLeg
			{
				OFFSET -0.021200 -31.938179 0.493100
				CHANNELS 3 Xrotation Yrotation Zrotation
				JOINT LeftFoot
				{
					OFFSET 0.021200 -31.938179 -4.336299
					CHANNELS 3 Xrotation Yrotation Zrotation
					JOINT LeftToeBase
					{
						OFFSET 0.943001 -26.722000 15.023500
						CHANNELS 3 Xrotation Yrotation Zrotation
						End Site
						{
							OFFSET 0 0 0
						}
					}
				}
			}
		}
	}
	JOINT RightUpLeg_virtual
	{
		OFFSET 0.000000 0.000000 0.000000
		CHANNELS 3 Xrotation Yrotation Zrotation
		JOINT RightUpLeg
		{
			OFFSET -18.735201 -5.666702 -4.541200
			CHANNELS 3 Xrotation Yrotation Zrotation
			JOINT RightLeg
			{
				OFFSET 0.018946 -31.938133 0.493100
				CHANNELS 3 Xrotation Yrotation Zrotation
				JOINT RightFoot
				{
					OFFSET -0.018946 -31.938126 -4.336299
					CHANNELS 3 Xrotation Yrotation Zrotation
					JOINT RightToeBase
					{
						OFFSET -0.943001 -26.722004 15.023500
						CHANNELS 3 Xrotation Yrotation Zrotation
						End Site
						{
							OFFSET 0 0 0
						}
					}
				}
			}
		}
	}
	JOINT Hips_virtual
	{
		OFFSET 0.000000 0.000000 0.000000
		CHANNELS 3 Xrotation Yrotation Zrotation
		JOINT Hips
		{
			OFFSET -0.000000 -0.000000 -0.000000
			CHANNELS 3 Xrotation Yrotation Zrotation
			JOINT Spine
			{
				OFFSET 0.000000 10.199997 -0.299500
				CHANNELS 3 Xrotation Yrotation Zrotation
				JOINT Spine1
				{
					OFFSET 0.000000 11.900002 -1.516600
					CHANNELS 3 Xrotation Yrotation Zrotation
					JOINT Spine2
					{
						OFFSET 0.000000 13.600006 -2.842500
						CHANNELS 3 Xrotation Yrotation Zrotation
						JOINT Neck_virtual
						{
							OFFSET 0.000000 0.000000 0.000000
							CHANNELS 3 Xrotation Yrotation Zrotation
							JOINT Neck
							{
								OFFSET 0.000000 9.624100 -2.890100
								CHANNELS 3 Xrotation Yrotation Zrotation
								JOINT Head
								{
									OFFSET 0.000000 14.068802 -1.351900
									CHANNELS 3 Xrotation Yrotation Zrotation
									End Site
									{
										OFFSET 0 0 0
									}
								}
							}
						}
						JOINT LeftShoulder_virtual
						{
							OFFSET 0.000000 0.000000 0.000000
							CHANNELS 3 Xrotation Yrotation Zrotation
							JOINT LeftShoulder
							{
								OFFSET 15.263000 10.923401 -0.547700
								CHANNELS 3 Xrotation Yrotation Zrotation
								JOINT LeftArm
								{
									OFFSET 25.438599 -2.830597 -13.032500
									CHANNELS 3 Xrotation Yrotation Zrotation
									JOINT LeftForeArm
									{
										OFFSET 29.960503 0.000000 0.000000
										CHANNELS 3 Xrotation Yrotation Zrotation
										JOINT LeftHand
										{
											OFFSET 27.849251 0.000000 0.000000
											CHANNELS 3 Xrotation Yrotation Zrotation
											End Site
											{
												OFFSET 0 0 0
											}
										}
									}
								}
							}
						}
						JOINT RightShoulder_virtual
						{
							OFFSET 0.000000 0.000000 0.000000
							CHANNELS 3 Xrotation Yrotation Zrotation
							JOINT RightShoulder
							{
								OFFSET -15.263000 10.923401 -0.547700
								CHANNELS 3 Xrotation Yrotation Zrotation
								JOINT RightArm
								{
									OFFSET -25.438599 -2.830597 -13.032500
									CHANNELS 3 Xrotation Yrotation Zrotation
									JOINT RightForeArm
									{
										OFFSET -29.960503 0.000000 0.000000
										CHANNELS 3 Xrotation Yrotation Zrotation
										JOINT RightHand
										{
											OFFSET -27.849251 0.000000 0.000000
											CHANNELS 3 Xrotation Yrotation Zrotation
											End Site
											{
												OFFSET 0 0 0
											}
										}
									}
								}
							}
						}
					}
				}
			}
		}
	}
}
MOTION
Frames: 4
Frame Time: 0.03333333
10.033641 183.847931 75.270790 0.000000 0.000000 0.000000 8.631675 8.119154 -1.028965 -32.883550 13.404940 18.371959 62.592455 -4.038402 -2.365986 9.056465 -4.024527 -12.667890 0.000000 0.000000 0.000000 -7.209872 21.836852 -3.233931 -41.183169 4.742721 -17.717627 56.328871 11.554584 -0.188367 -2.605526 8.470302 20.925733 0.000000 0.000000 0.000000 0.872687 6.273930 0.467978 -10.690050 7.761713 0.606678 18.510627 -2.015341 -2.321421 9.147890 -1.238673 -0.841404 0.000000 0.000000 0.000000 9.121125 -1.229146 -2.806802 2.631644 -0.492864 -1.136513 0.000000 0.000000 0.000000 8.581006 0.828106 2.819183 2.238517 1.857289 1.300322 -56.705183 -41.961206 -74.450961 -175.639230 -63.298252 -174.163636 0.000000 0.000000 0.000000 11.922986 -0.439877 -0.120595 5.892108 5.595533 -0.584623 -15.116406 23.920231 47.040981 -6.857724 76.830366 9.852331 0.000000 0.000000 0.000000 
10.251418 181.322815 78.088127 0.000000 0.000000 0.000000 8.435758 8.270590 -0.955461 -33.067616 13.366817 18.440589 62.363063 -4.074072 -2.491234 8.853903 -3.987406 -12.876958 0.000000 0.000000 0.000000 -7.170632 21.452314 -2.968127 -41.063616 4.532363 -17.464162 56.910499 11.712031 -0.552529 -2.280873 8.847868 20.596683 0.000000 0.000000 0.000000 0.812670 6.248922 0.530675 -11.432166 7.336211 0.983445 18.633968 -1.728641 -2.333062 9.169456 -1.086029 -0.820225 0.000000 0.000000 0.000000 9.335834 -1.099667 -2.738111 2.719989 -0.459303 -1.104080 0.000000 0.000000 0.000000 8.631932 0.939293 2.769133 2.213764 2.035527 0.978191 -56.514481 -42.050678 -74.422930 -175.660171 -63.476213 -174.229725 0.000000 0.000000 0.000000 12.034126 -0.261147 -0.151266 5.926930 6.086018 -0.653037 -15.914821 23.970607 47.451455 -7.633795 77.034603 10.493081 0.000000 0.000000 0.000000 
10.466773 178.603073 80.894356 0.000000 0.000000 0.000000 8.253533 8.295834 -0.902037 -33.190457 13.310042 18.451355 61.974985 -4.075025 -2.600191 8.506003 -3.909312 -13.026147 0.000000 0.000000 0.000000 -7.063651 20.928932 -2.704666 -40.849060 4.269732 -17.205583 57.269763 11.740521 -0.878424 -2.056828 9.077152 20.188548 0.000000 0.000000 0.000000 0.769872 6.226126 0.583828 -12.169828 6.884994 1.290394 18.697764 -1.452760 -2.352855 9.159115 -0.938200 -0.804722 0.000000 0.000000 0.000000 9.535455 -0.980828 -2.663952 2.799937 -0.429249 -1.072385 0.000000 0.000000 0.000000 8.647135 1.045382 2.716837 2.167082 2.207087 0.645298 -56.273331 -42.069205 -74.291517 -175.623124 -63.806343 -174.231774 0.000000 0.000000 0.000000 12.097088 -0.096513 -0.188705 5.929247 6.519246 -0.749029 -16.725699 24.001392 48.018241 -8.669556 77.380408 11.421998 0.000000 0.000000 0.000000 
10.675783 175.672455 83.683266 0.000000 0.000000 0.000000 8.070558 8.214569 -0.862891 -33.271648 13.233442 18.413941 61.435236 -4.047044 -2.704638 8.022210 -3.791878 -13.138782 0.000000 0.000000 0.000000 -6.888454 20.292620 -2.452022 -40.541343 3.965437 -16.949611 57.421960 11.651227 -1.160054 -1.924780 9.165952 19.719036 0.000000 0.000000 0.000000 0.740500 6.211235 0.624019 -12.891473 6.419433 1.520950 18.707509 -1.182376 -2.381583 9.120687 -0.792160 -0.795152 0.000000 0.000000 0.000000 9.717343 -0.867039 -2.589405 2.870539 -0.399378 -1.043718 0.000000 0.000000 0.000000 8.626088 1.151649 2.662551 2.097391 2.386368 0.310436 -55.998115 -42.014703 -74.072760 -175.526381 -64.262661 -174.169059 0.000000 0.000000 0.000000 12.113246 0.058253 -0.233792 5.900679 6.911909 -0.876652 -17.562144 24.018579 48.737419 -10.042643 77.867920 12.714975 0.000000 0.000000 0.000000 
